# xmcd
#
# Track frame offsets: 
#        150
#        27944
#        51561
#        82781
#        117209
#        141470
#        172583
#        212847
#        241220
#        271470
#        298619
#        324560
#
# Disc length: 4559 seconds
#
# Revision: 0
# Processed by: cddbd v1.5.2PL0 Copyright (c) Steve Scherf et al.
# Submitted via: ExactAudioCopy v0.95b4
#
DISCID=ab11cd0c
DTITLE=Various Artist - Poolposition 2004-02
DYEAR=2004
DGENRE=
TTITLE0=Springbreak - Big bad love (Cascada remix)
TTITLE1=Mylo - Drop the pressure (extended mix)
TTITLE2=T. Luxor - Set me free
TTITLE3=Michael Urgacz vs Sean Tyas - 4 corners (original mix)
TTITLE4=?* - Self control (proggy mix)
TTITLE5=Talla 2XLC feat. Ely - The air that I breathe (Jam X and de Leon
TTITLE5=du Monde Vox Mix)
TTITLE6=Talla 2XLC feat. Ely - The air that I breathe (Alex M.O.R.P.H.
TTITLE6=Mix)
TTITLE7=Stacccato - Changes (Club Mix)
TTITLE8=Seikos - Rhythm of life (club mix)
TTITLE9=AMJ - Flxing (Club Mix)
TTITLE10=Groove-State - Truly in rapture (Extended Mix)
TTITLE11=Refresh Crew - A fresh dreadlock holiday (extended Reggae Mix
TTITLE11=)
EXTD=
EXTT0=
EXTT1=
EXTT2=
EXTT3=
EXTT4=
EXTT5=
EXTT6=
EXTT7=
EXTT8=
EXTT9=
EXTT10=
EXTT11=
PLAYORDER=
